<svg xmlns="http://www.w3.org/2000/svg" viewBox="0 0 1300 760" role="img" aria-labelledby="title desc"><title id="title">Tool plugin map</title><desc id="desc">JARVIS plugin functions and domains.</desc><rect width="1300" height="760" fill="#050713"/><g font-family="Inter,Arial" fill="#f8fafc"><text x="650" y="62" text-anchor="middle" font-size="34" font-weight="800">Tool / Plugin Map</text><text x="650" y="96" text-anchor="middle" fill="#94a3b8" font-size="17">The assistant becomes useful when reasoning can commit actions into typed domains.</text><g fill="#0f111a" stroke="#6366f1" stroke-opacity=".6"><rect x="90" y="160" width="250" height="130" rx="18"/><rect x="385" y="160" width="250" height="130" rx="18"/><rect x="680" y="160" width="250" height="130" rx="18"/><rect x="975" y="160" width="250" height="130" rx="18"/><rect x="235" y="430" width="250" height="130" rx="18"/><rect x="530" y="430" width="250" height="130" rx="18"/><rect x="825" y="430" width="250" height="130" rx="18"/></g><text x="215" y="212" text-anchor="middle" font-size="21" font-weight="800">Reminder</text><text x="215" y="244" text-anchor="middle" fill="#94a3b8" font-size="14">time + notification</text><text x="510" y="212" text-anchor="middle" font-size="21" font-weight="800">Finance</text><text x="510" y="244" text-anchor="middle" fill="#94a3b8" font-size="14">spending + budgets</text><text x="805" y="212" text-anchor="middle" font-size="21" font-weight="800">Health</text><text x="805" y="244" text-anchor="middle" fill="#94a3b8" font-size="14">tracking + goals</text><text x="1100" y="212" text-anchor="middle" font-size="21" font-weight="800">Routine</text><text x="1100" y="244" text-anchor="middle" fill="#94a3b8" font-size="14">daily automation</text><text x="360" y="482" text-anchor="middle" font-size="21" font-weight="800">Memory</text><text x="360" y="514" text-anchor="middle" fill="#94a3b8" font-size="14">facts + preferences</text><text x="655" y="482" text-anchor="middle" font-size="21" font-weight="800">Weather / Web</text><text x="655" y="514" text-anchor="middle" fill="#94a3b8" font-size="14">external context</text><text x="950" y="482" text-anchor="middle" font-size="21" font-weight="800">Device Control</text><text x="950" y="514" text-anchor="middle" fill="#94a3b8" font-size="14">speaker, GPIO, LED</text></g></svg>
