<svg xmlns="http://www.w3.org/2000/svg" viewBox="0 0 1400 820" role="img" aria-labelledby="title desc"><title id="title">Project match sequence</title><desc id="desc">Sequence from project creation to AI matching notification.</desc><rect width="1400" height="820" fill="#050713"/><defs><marker id="a" markerWidth="10" markerHeight="10" refX="8" refY="3" orient="auto"><path d="M0,0 L0,6 L9,3 z" fill="#818cf8"/></marker></defs><g font-family="Inter,Arial" fill="#f8fafc"><text x="700" y="60" text-anchor="middle" font-size="34" font-weight="800">Sequence: Company Posts Project → Student Gets Matched</text><g fill="#0f111a" stroke="#6366f1" stroke-opacity=".55"><rect x="70" y="115" width="150" height="62" rx="14"/><rect x="300" y="115" width="150" height="62" rx="14"/><rect x="530" y="115" width="150" height="62" rx="14"/><rect x="760" y="115" width="150" height="62" rx="14"/><rect x="990" y="115" width="150" height="62" rx="14"/><rect x="1210" y="115" width="150" height="62" rx="14"/></g><text x="145" y="153" text-anchor="middle" font-size="16" font-weight="700">Company UI</text><text x="375" y="153" text-anchor="middle" font-size="16" font-weight="700">Go Handler</text><text x="605" y="153" text-anchor="middle" font-size="16" font-weight="700">ProjectSvc</text><text x="835" y="153" text-anchor="middle" font-size="16" font-weight="700">MongoDB</text><text x="1065" y="153" text-anchor="middle" font-size="16" font-weight="700">AI Service</text><text x="1285" y="153" text-anchor="middle" font-size="16" font-weight="700">WebSocket</text></g><g stroke="#24305f" stroke-width="2" stroke-dasharray="8 8"><path d="M145 177 V745"/><path d="M375 177 V745"/><path d="M605 177 V745"/><path d="M835 177 V745"/><path d="M1065 177 V745"/><path d="M1285 177 V745"/></g><g stroke="#818cf8" stroke-width="3" fill="none" marker-end="url(#a)"><path d="M145 235 H375"/><path d="M375 300 H605"/><path d="M605 365 H835"/><path d="M605 430 H1065"/><path d="M1065 505 H605"/><path d="M605 570 H835"/><path d="M605 635 H1285"/><path d="M1285 700 H145"/></g><g font-family="JetBrains Mono,monospace" fill="#94a3b8" font-size="15"><text x="168" y="224">POST /projects</text><text x="395" y="289">validate + authorize</text><text x="626" y="354">persist project</text><text x="626" y="419">match_request(profile_pool, requirements)</text><text x="880" y="494">ranked candidates + explanations</text><text x="626" y="559">store match snapshot</text><text x="626" y="624">emit notification event</text><text x="930" y="689">student receives live match</text></g></svg>
