<svg xmlns="http://www.w3.org/2000/svg" viewBox="0 0 1200 760" role="img" aria-labelledby="title desc"><title id="title">SkillForge data model</title><desc id="desc">Core document relationships for SkillForge.</desc><rect width="1200" height="760" fill="#050713"/><defs><marker id="a" markerWidth="10" markerHeight="10" refX="8" refY="3" orient="auto"><path d="M0,0 L0,6 L9,3 z" fill="#818cf8"/></marker></defs><g font-family="Inter,Arial" fill="#f8fafc"><text x="600" y="62" text-anchor="middle" font-size="34" font-weight="800">Core Data Model</text><text x="600" y="96" text-anchor="middle" fill="#94a3b8" font-size="17">MongoDB documents are grouped around marketplace, collaboration, and gamification state.</text><g fill="#0f111a" stroke="#6366f1" stroke-opacity=".6"><rect x="90" y="170" width="210" height="120" rx="16"/><rect x="495" y="170" width="210" height="120" rx="16"/><rect x="900" y="170" width="210" height="120" rx="16"/><rect x="290" y="420" width="210" height="120" rx="16"/><rect x="700" y="420" width="210" height="120" rx="16"/></g><text x="195" y="215" text-anchor="middle" font-size="21" font-weight="800">User</text><text x="195" y="245" text-anchor="middle" fill="#94a3b8" font-size="14">student / company</text><text x="600" y="215" text-anchor="middle" font-size="21" font-weight="800">Project</text><text x="600" y="245" text-anchor="middle" fill="#94a3b8" font-size="14">brief + requirements</text><text x="1005" y="215" text-anchor="middle" font-size="21" font-weight="800">Application</text><text x="1005" y="245" text-anchor="middle" fill="#94a3b8" font-size="14">candidate state</text><text x="395" y="465" text-anchor="middle" font-size="21" font-weight="800">Message</text><text x="395" y="495" text-anchor="middle" fill="#94a3b8" font-size="14">room timeline</text><text x="805" y="465" text-anchor="middle" font-size="21" font-weight="800">Gamification</text><text x="805" y="495" text-anchor="middle" fill="#94a3b8" font-size="14">XP + badges</text></g><g stroke="#818cf8" stroke-width="3" fill="none" marker-end="url(#a)"><path d="M300 230 H495"/><path d="M705 230 H900"/><path d="M560 290 C500 350 440 390 395 420"/><path d="M640 290 C705 350 760 390 805 420"/><path d="M300 260 C390 350 310 390 290 450"/></g></svg>
