<svg xmlns="http://www.w3.org/2000/svg" viewBox="0 0 1200 760" role="img" aria-labelledby="title desc"><title id="title">Runtime deployment</title><desc id="desc">Runtime units and failure isolation for SkillForge.</desc><rect width="1200" height="760" fill="#050713"/><defs><marker id="a" markerWidth="10" markerHeight="10" refX="8" refY="3" orient="auto"><path d="M0,0 L0,6 L9,3 z" fill="#818cf8"/></marker></defs><g font-family="Inter,Arial" fill="#f8fafc"><text x="600" y="62" text-anchor="middle" font-size="34" font-weight="800">Runtime Deployment</text><text x="600" y="96" text-anchor="middle" fill="#94a3b8" font-size="17">Four runtime units make local development and failure isolation explicit.</text><rect x="80" y="160" width="1040" height="470" rx="26" fill="#080b18" stroke="#1f2350"/><text x="600" y="205" text-anchor="middle" fill="#94a3b8" font-size="17">Docker Compose network</text><g fill="#0f111a" stroke="#6366f1" stroke-opacity=".6"><rect x="145" y="285" width="190" height="105" rx="16"/><rect x="390" y="285" width="190" height="105" rx="16"/><rect x="635" y="285" width="190" height="105" rx="16"/><rect x="880" y="285" width="190" height="105" rx="16"/></g><text x="240" y="328" text-anchor="middle" font-size="20" font-weight="800">frontend</text><text x="240" y="356" text-anchor="middle" fill="#94a3b8" font-size="14">SvelteKit</text><text x="485" y="328" text-anchor="middle" font-size="20" font-weight="800">backend</text><text x="485" y="356" text-anchor="middle" fill="#94a3b8" font-size="14">Go API + WS</text><text x="730" y="328" text-anchor="middle" font-size="20" font-weight="800">ai</text><text x="730" y="356" text-anchor="middle" fill="#94a3b8" font-size="14">Python FastAPI</text><text x="975" y="328" text-anchor="middle" font-size="20" font-weight="800">mongodb</text><text x="975" y="356" text-anchor="middle" fill="#94a3b8" font-size="14">documents</text><rect x="325" y="500" width="550" height="70" rx="14" fill="#111426" stroke="#10b981" stroke-opacity=".75"/><text x="600" y="543" text-anchor="middle" font-size="20" font-weight="800">Failure Boundary: AI can restart without dropping active WebSocket rooms</text></g><g stroke="#818cf8" stroke-width="3" fill="none" marker-end="url(#a)"><path d="M335 337 H390"/><path d="M580 337 H635"/><path d="M580 360 C690 450 850 445 940 390"/></g></svg>
